<svg viewBox="0 0 174 51" fill="none" xmlns="http://www.w3.org/2000/svg">
<path d="M35.85 0L24.4 18.15L29.5 36H20L16.25 22.8H12.3L9.95001 36H0.950012L7.30001 0H16.3L13.65 15H16.85L26.35 0H35.85Z" fill="black"/>
<path d="M44.0125 36.7C37.0792 36.7 33.6125 34.3 33.6125 29.5C33.6125 28.8333 33.6792 28.1167 33.8125 27.35L34.8625 21.15C35.4292 17.95 36.8958 15.5 39.2625 13.8C41.6625 12.0667 44.8292 11.2 48.7625 11.2C55.4625 11.2 58.8125 13.7333 58.8125 18.8C58.8125 19.5333 58.7458 20.3333 58.6125 21.2L58.0125 24.75H42.7625L42.5625 25.9C42.4958 26.3 42.4625 26.6667 42.4625 27C42.4625 28.8333 43.5458 29.75 45.7125 29.75C46.5125 29.75 47.1958 29.5 47.7625 29C48.3292 28.5 48.6625 27.9167 48.7625 27.25L57.0625 27.35C55.9625 33.5833 51.6125 36.7 44.0125 36.7ZM50.0125 21.7C50.1458 21.1333 50.2125 20.6167 50.2125 20.15C50.2125 19.65 49.9958 19.15 49.5625 18.65C49.1292 18.15 48.4292 17.9 47.4625 17.9C46.5292 17.9 45.6625 18.2167 44.8625 18.85C44.0958 19.4833 43.5625 20.4333 43.2625 21.7H50.0125Z" fill="black"/>
<path d="M71.0504 25.25C70.9504 25.85 70.9004 26.45 70.9004 27.05C70.9004 28.65 71.8004 29.45 73.6004 29.45C75.0671 29.45 76.2837 28.9333 77.2504 27.9L80.0504 11.95H88.5504L84.1504 36.8C83.4171 41.0333 81.7337 44.3833 79.1004 46.85C76.5004 49.3167 73.5171 50.55 70.1504 50.55C66.7837 50.55 64.3504 49.9333 62.8504 48.7C61.3837 47.4667 60.6504 45.85 60.6504 43.85C60.6504 41.0167 62.4004 38.5 65.9004 36.3C64.0004 35.8333 62.8004 34.8833 62.3004 33.45C62.0004 32.65 61.8504 31.75 61.8504 30.75C61.8504 29.75 61.9337 28.7333 62.1004 27.7L64.9004 11.95H73.4004L71.0504 25.25ZM71.3004 43.4C73.4671 43.4 74.8837 41.4333 75.5504 37.5L76.0504 34.6C71.4171 36.7667 69.1004 38.95 69.1004 41.15C69.1004 41.8167 69.2837 42.35 69.6504 42.75C70.0504 43.1833 70.6004 43.4 71.3004 43.4Z" fill="black"/>
<path d="M100.116 36.7C93.1827 36.7 89.716 34.3 89.716 29.5C89.716 28.8333 89.7827 28.1167 89.916 27.35L90.966 21.15C91.4994 17.95 92.9494 15.5 95.316 13.8C97.716 12.1 100.749 11.2333 104.416 11.2C111.516 11.2 115.066 13.6667 115.066 18.6C115.066 19.6667 114.933 20.6333 114.666 21.5C114.433 22.3333 114.183 22.9 113.916 23.2L113.516 23.7H105.016C105.849 22.9667 106.266 22.1 106.266 21.1C106.266 19.3 105.366 18.4 103.566 18.4C102.499 18.4 101.583 18.7167 100.816 19.35C100.049 19.9833 99.5494 20.95 99.316 22.25L98.666 25.9C98.5994 26.2333 98.566 26.55 98.566 26.85C98.566 28.6167 99.666 29.5 101.866 29.5C102.599 29.5 103.249 29.2667 103.816 28.8C104.416 28.3333 104.766 27.8167 104.866 27.25L113.166 27.35C112.066 33.5833 107.716 36.7 100.116 36.7Z" fill="black"/>
<path d="M140.956 28.3C140.956 29.1667 141.39 29.6 142.256 29.6C143.156 29.6 143.906 29.4333 144.506 29.1L144.256 34.75C142.656 36.05 140.856 36.7 138.856 36.7C135.19 36.7 133.156 35.3667 132.756 32.7C131.09 35.3667 128.64 36.7 125.406 36.7C119.94 36.7 117.206 34.35 117.206 29.65C117.206 28.85 117.29 27.9667 117.456 27L118.506 21.15C119.04 18.15 120.256 15.7667 122.156 14C124.09 12.2 126.59 11.3 129.656 11.3C132.756 11.3 134.856 12.0167 135.956 13.45L136.206 11.95H143.806L141.006 27.7C140.973 27.9 140.956 28.1 140.956 28.3ZM126.156 25.9C126.09 26.2 126.056 26.6167 126.056 27.15C126.056 27.6833 126.306 28.2167 126.806 28.75C127.306 29.25 128.14 29.5 129.306 29.5C130.506 29.5 131.54 29.0333 132.406 28.1L133.906 19.7C133.54 18.8667 132.673 18.45 131.306 18.45C128.74 18.45 127.24 19.6833 126.806 22.15L126.156 25.9Z" fill="black"/>
<path d="M158.284 36.7C154.418 36.7 151.634 35.8333 149.934 34.1C148.668 32.8333 148.034 31.1333 148.034 29C148.034 28.3 148.101 27.55 148.234 26.75L151.634 7.4L160.784 3.6L159.334 11.95H173.134L171.884 19H158.084L157.084 24.65C156.951 25.2833 156.884 25.85 156.884 26.35C156.884 28.45 157.884 29.5 159.884 29.5C160.951 29.5 161.834 29.05 162.534 28.15C163.268 27.25 163.768 26.05 164.034 24.55H172.334C170.934 32.65 166.251 36.7 158.284 36.7Z" fill="black"/>
</svg>
