<svg viewBox="0 0 163 40" fill="none" xmlns="http://www.w3.org/2000/svg">
<path d="M35.85 2.99999L24.4 21.15L29.5 39H20L16.25 25.8H12.3L9.95001 39H0.950012L7.30001 2.99999H16.3L13.65 18H16.85L26.35 2.99999H35.85Z" fill="black"/>
<path d="M44.4625 32.6C45.2292 32.6 45.9125 32.4333 46.5125 32.1L46.2625 37.75C44.6958 39.05 42.9125 39.7 40.9125 39.7C37.8792 39.7 35.9125 39 35.0125 37.6C34.4125 36.6667 34.1125 35.6833 34.1125 34.65C34.1125 33.5833 34.1792 32.65 34.3125 31.85L37.3125 14.95H45.8125L43.0125 30.7C42.9792 30.9 42.9625 31.0833 42.9625 31.25C42.9625 32.15 43.4625 32.6 44.4625 32.6ZM38.3125 6.79999C38.3125 4.66666 38.7792 3.11666 39.7125 2.14999C40.6792 1.14999 42.1625 0.649994 44.1625 0.649994C46.9625 0.649994 48.3625 1.88333 48.3625 4.34999C48.3625 6.44999 47.8792 7.98333 46.9125 8.94999C45.9792 9.91666 44.4958 10.4 42.4625 10.4C39.6958 10.4 38.3125 9.19999 38.3125 6.79999Z" fill="black"/>
<path d="M60.2863 39.7C56.4197 39.7 53.6363 38.8333 51.9363 37.1C50.6697 35.8333 50.0363 34.1333 50.0363 32C50.0363 31.3 50.103 30.55 50.2363 29.75L53.6363 10.4L62.7863 6.6L61.3363 14.95H75.1363L73.8863 22H60.0863L59.0863 27.65C58.953 28.2833 58.8863 28.85 58.8863 29.35C58.8863 31.45 59.8863 32.5 61.8863 32.5C62.953 32.5 63.8363 32.05 64.5363 31.15C65.2697 30.25 65.7697 29.05 66.0363 27.55H74.3363C72.9363 35.65 68.253 39.7 60.2863 39.7Z" fill="black"/>
<path d="M111.778 2.99999L100.328 21.15L105.428 39H95.9277L92.1777 25.8H88.2278L85.8778 39H76.8777L83.2278 2.99999H92.2278L89.5778 18H92.7777L102.278 2.99999H111.778Z" fill="black"/>
<path d="M119.94 39.7C113.007 39.7 109.54 37.3 109.54 32.5C109.54 31.8333 109.607 31.1167 109.74 30.35L110.79 24.15C111.357 20.95 112.824 18.5 115.19 16.8C117.59 15.0667 120.757 14.2 124.69 14.2C131.39 14.2 134.74 16.7333 134.74 21.8C134.74 22.5333 134.674 23.3333 134.54 24.2L133.94 27.75H118.69L118.49 28.9C118.424 29.3 118.39 29.6667 118.39 30C118.39 31.8333 119.474 32.75 121.64 32.75C122.44 32.75 123.124 32.5 123.69 32C124.257 31.5 124.59 30.9167 124.69 30.25L132.99 30.35C131.89 36.5833 127.54 39.7 119.94 39.7ZM125.94 24.7C126.074 24.1333 126.14 23.6167 126.14 23.15C126.14 22.65 125.924 22.15 125.49 21.65C125.057 21.15 124.357 20.9 123.39 20.9C122.457 20.9 121.59 21.2167 120.79 21.85C120.024 22.4833 119.49 23.4333 119.19 24.7H125.94Z" fill="black"/>
<path d="M148.128 39.7C144.261 39.7 141.478 38.8333 139.778 37.1C138.511 35.8333 137.878 34.1333 137.878 32C137.878 31.3 137.945 30.55 138.078 29.75L141.478 10.4L150.628 6.6L149.178 14.95H162.978L161.728 22H147.928L146.928 27.65C146.795 28.2833 146.728 28.85 146.728 29.35C146.728 31.45 147.728 32.5 149.728 32.5C150.795 32.5 151.678 32.05 152.378 31.15C153.111 30.25 153.611 29.05 153.878 27.55H162.178C160.778 35.65 156.095 39.7 148.128 39.7Z" fill="black"/>
</svg>
