<svg viewBox="0 0 763 140"><path d="M0 0h48c14 0 24.4 3.7 31 11.5 6.7 7.7 10 18.8 10 34A52 52 0 0 1 79 79c-6.6 8-16.6 12.5-30.3 12.5H33.2V137H0V0zm42.5 65.4c4 0 7-1.5 9.2-4.5 2.2-3 3-8 3-15.1 0-7.4-1.1-13-3-15.9-1.8-2.6-4.8-4-8.9-4h-9.6v39.5h9.3zM128.5 98.6c.4 6.3 2.6 10.4 7 13a42.5 42.5 0 0 0 18.9 3.7c2.6 0 5.5 0 8.8-.4 3.4-.4 6.3-.8 8.9-1.5v23.3l-5.5 1c-2.3.5-4.5.5-6.7.8-2.2.4-4.4.4-6.6.4-2.3 0-4.1.4-5.6.4-15.5 0-27-3.7-35.4-11.1-8.2-7.4-12.2-18.9-12.2-34v-14c0-7 1-13 3.3-18.5 2.2-5.2 5.2-9.6 8.9-13 3.7-3.3 8.1-5.9 13.3-7.7a48.3 48.3 0 0 1 30.3-.4c4.4 1.5 8.4 4.1 12.1 7 3.4 3.4 6.3 7.4 8.5 13a50 50 0 0 1 3 19.2V99h-51v-.4zm23.3-19.2c0-7-1.1-11.8-3-14-1.8-2.2-4.8-3.3-8.5-3.3a12 12 0 0 0-8.8 3.3c-2.2 2.2-3.3 7-3.3 14h23.6zM222.3 98.6c.4 6.3 2.6 10.4 7 13a37.9 37.9 0 0 0 18.9 3.7c2.6 0 5.5 0 8.8-.4 3.4-.4 6.3-.8 8.9-1.5v23.3l-5.5 1c-2.3.5-4.5.5-6.7.8-2.2.4-4.4.4-6.6.4-2.2 0-4 .4-5.6.4-15.5 0-27-3.7-35.4-11.1-8.1-7.4-12.2-18.9-12.2-34v-14c0-7 1.1-13 3.3-18.5 2.2-5.2 5.2-9.6 8.9-13 3.7-3.3 8.1-5.9 13.3-7.7a49 49 0 0 1 30.6-.4c4.5 1.5 8.5 4.1 12.2 7 3.3 3.4 6.3 7.4 8.5 13a50 50 0 0 1 3 19.2V99h-51.4v-.4zm23.3-19.2c0-7-1.1-11.8-3-14-1.8-2.2-4.8-3.3-8.5-3.3a12 12 0 0 0-8.8 3.3c-2.2 2.2-3.3 7-3.3 14h23.6zM288.8 0h30.3v73.5l23.3-32.9h33.2L344.9 84l29.6 53.5h-33.6L319 96.8v40.6h-30.3V0zM456.8 137h-26.6l-1.4-7.3a27.5 27.5 0 0 1-20.3 9.2c-3.7 0-7.4-.4-11.1-1.1-3.7-.8-6.7-2.2-9.6-4.8a26 26 0 0 1-6.7-9.3 41.4 41.4 0 0 1-2.6-15.1v-5.2c0-5.1.8-9.2 2.6-12.5a23.8 23.8 0 0 1 17.4-12.6 61.2 61.2 0 0 1 21.8-.7c2.6.3 5.1 1.5 7.7 2.6v-3.4c0-2.2-.3-4-.7-5.9a6.6 6.6 0 0 0-3.3-4.4 21 21 0 0 0-7-3 52 52 0 0 0-21.8 0c-3.7.8-6.7 1.1-9.3 1.9v-23l5.6-1c2.2-.4 4.4-.4 6.6-.8 2.2-.3 4.5-.3 6.7-.7 2.2 0 4-.4 5.5-.4 9.6 0 17.4.8 23.3 2.6a34 34 0 0 1 14 7.8 26 26 0 0 1 7 12.9c1.1 5.2 1.9 11 1.9 17.7V137h.3zm-40.2-19.2c4 0 7-1 8.8-3.3 1.9-2.2 3-4.8 3-7v-9.2c-2.6-2.3-6-3-10-3-3.7 0-7 .7-9.2 2.2-2.2 1.5-3.3 4.5-3.3 8.9v.7c0 3.7.7 6.3 2.6 8.2 1.8 1.8 4.4 2.5 8 2.5zM560.2 92c0 8.5-.7 15.5-2.5 21.4-1.5 6-4.1 10.7-6.7 14-3 3.7-6.3 6.3-10.3 7.8-4 1.5-8.2 2.6-12.6 2.6-4.8 0-9.2-.8-12.5-2.2a32.1 32.1 0 0 1-9.6-6.7L504 137h-28.4V0H506v47a29 29 0 0 1 22.5-9.3c4.4 0 8.9.7 12.5 2.2 4.1 1.5 7.4 4 10.4 7.8 3 3.6 5.2 8 6.6 14a92 92 0 0 1 2.2 21.8V92zM529 84.6c0-7.8-.8-13.3-2.6-16.3-1.5-3.3-4.8-4.8-8.9-4.8a10 10 0 0 0-5.9 1.5 9 9 0 0 0-3.3 4c-.8 1.6-1.5 3.8-1.9 5.6-.3 2.2-.3 4.5-.3 6.7v13.3c0 2.2 0 4.4.3 6.6.4 2.2.8 4 1.5 5.6.7 1.4 1.9 3 3.3 4a8.9 8.9 0 0 0 5.6 1.5c4.4 0 7.4-1.9 9.2-5.5 1.8-3.7 2.6-9 2.6-16v-6.2h.4zM618.6 140c-6.3 0-12.2-.7-17.7-2.6-5.2-1.5-10-4.4-13.7-8.1a39.8 39.8 0 0 1-8.9-14.4c-2.2-6-3-13-3-21.4v-9.6c0-8.5 1.2-15.6 3.4-21.5s5.2-10.7 8.9-14.4c3.7-3.7 8.1-6.3 13.6-8.1a63.4 63.4 0 0 1 35.1 0c5.2 1.5 10 4.4 13.7 8.1 3.7 3.7 6.6 8.5 8.9 14.4 2.2 6 3 13 3 21.5v9.6c0 8.5-1.2 15.5-3 21.4-2.3 5.9-4.8 10.7-8.5 14.4a33.7 33.7 0 0 1-13.7 8.1 56.4 56.4 0 0 1-18.1 2.6zm.4-77.6c-5.2 0-8.5 2.2-10 6.3-1.5 4-1.9 10-1.9 17.7v5.2a70 70 0 0 0 1.9 17.7c1.1 4.1 4.4 6.3 9.6 6.3 5.2 0 8.5-2.2 9.6-6.3 1.5-4 1.8-10 1.8-17.7v-5.2c0-3.7 0-7.3-.3-10.3-.4-3-.8-5.5-1.5-7.8a9.4 9.4 0 0 0-3.3-4.8 12 12 0 0 0-6-1zM719.8 140c-6.3 0-12.2-.7-17.7-2.6-5.2-1.5-10-4.4-13.7-8.1a39.8 39.8 0 0 1-8.9-14.4c-2.2-6-3-13-3-21.4v-9.6c0-8.5 1.2-15.6 3.4-21.5s5.2-10.7 8.9-14.4c3.7-3.7 8-6.3 13.6-8.1a63.4 63.4 0 0 1 35.1 0c5.2 1.5 10 4.4 13.7 8.1 3.7 3.7 6.6 8.5 8.8 14.4 2.3 6 3 13 3 21.5v9.6c0 8.5-1.1 15.5-3 21.4-2.2 5.9-4.8 10.7-8.4 14.4a33.7 33.7 0 0 1-13.7 8.1 56.4 56.4 0 0 1-18.1 2.6zm.4-77.6c-5.2 0-8.5 2.2-10 6.3-1.5 4-1.9 10-1.9 17.7v5.2a70 70 0 0 0 1.9 17.7c1.1 4.1 4.4 6.3 9.6 6.3 5.2 0 8.5-2.2 9.6-6.3 1.5-4 1.8-10 1.8-17.7v-5.2c0-3.7 0-7.3-.3-10.3-.4-3-.8-5.5-1.5-7.8a9.4 9.4 0 0 0-3.3-4.8 12 12 0 0 0-6-1z" fill="#083ade"/></svg>