<svg viewBox="0 0 80 80" fill="none" xmlns="http://www.w3.org/2000/svg">
<path d="M66.3333 62.6152C66.3166 63.4414 65.8638 63.8461 65.277 64.2171C59.7603 67.6738 54.2437 71.1474 48.727 74.621C46.0945 76.2735 43.4619 77.9091 40.8461 79.5953C40.0077 80.1349 39.3035 80.1349 38.4651 79.5953C30.3494 74.4187 22.2337 69.2589 14.0845 64.1159C12.9779 63.4077 12.8437 63.1211 13.1288 61.8227C15.8116 49.5134 18.4945 37.2041 21.1774 24.9116C21.278 24.4732 21.4624 24.0685 21.7139 23.7144C27.2306 16.1265 32.764 8.52168 38.2974 0.933748C39.2196 -0.314045 40.1083 -0.314045 41.0306 0.95061C46.5304 8.52168 52.0303 16.1096 57.5134 23.6975C57.8655 24.2034 58.1003 24.7767 58.2177 25.3669C60.9005 37.6088 63.5666 49.8675 66.2327 62.1093C66.283 62.3117 66.3166 62.514 66.3333 62.6152ZM39.6724 20.713C39.5885 20.8141 39.5047 20.9153 39.4376 21.0165C35.9834 27.1711 32.5292 33.3427 29.075 39.5142C28.9409 39.8346 28.9241 40.1887 29.0247 40.5259C31.1207 47.2707 33.2503 53.9987 35.363 60.7604C35.5307 61.2831 35.7654 61.4517 36.302 61.4349C38.4818 61.4011 40.6617 61.3843 42.8415 61.4349C43.529 61.4517 43.7973 61.2494 44.0152 60.5918C46.0777 53.9481 48.1569 47.3213 50.2697 40.6945C50.4541 40.2055 50.3871 39.6491 50.1188 39.1938C46.7652 33.2583 43.4284 27.3229 40.1083 21.3706C39.9742 21.1514 39.8233 20.9659 39.6724 20.713ZM41.0138 5.63827C41.0138 9.61772 41.0138 13.3442 41.0306 17.0876C41.0473 17.3911 41.1479 17.6778 41.3156 17.9476C44.6357 23.8662 47.9557 29.7848 51.2925 35.6865C51.3931 35.8551 51.5273 36.0069 51.695 36.2598C52.8016 32.7188 53.858 29.2958 54.9647 25.8728C55.1659 25.3838 55.0821 24.8273 54.7299 24.4226C50.3535 18.4197 45.9771 12.4168 41.6174 6.39706C41.4665 6.19471 41.3156 6.00923 41.0138 5.63827ZM27.633 36.2092C27.7839 35.99 27.8845 35.8551 27.9684 35.7202C31.3387 29.7679 34.6923 23.7987 38.0459 17.8464C38.2136 17.526 38.2806 17.1719 38.2806 16.8178C38.2974 13.3611 38.2974 9.90437 38.2806 6.44765C38.2806 6.2453 38.2471 6.04296 38.2303 5.68885C37.962 6.02609 37.7944 6.2453 37.6267 6.46451C33.7701 11.7592 29.9134 17.0708 26.0401 22.3654C25.4196 23.2254 24.4471 24.0348 24.2962 24.9791C24.1453 25.9571 24.7657 27.07 25.0843 28.0985C25.9227 30.7628 26.7611 33.4438 27.633 36.2092ZM26.9623 43.1395C23.4913 49.311 20.121 55.2971 16.7003 61.3674H32.6801C30.8021 55.2971 28.9241 49.311 26.9623 43.1395ZM52.3321 43.1395L46.6143 61.3674H62.6109L52.3321 43.1395ZM59.9448 64.3183L59.8777 64.1497C55.3336 64.1497 50.7727 64.1497 46.2118 64.1328C45.7256 64.1328 45.625 64.3857 45.5076 64.7736C44.6189 67.6064 43.7302 70.4392 42.8247 73.272L42.1205 75.5147L59.9448 64.3183ZM37.1236 75.481C37.0733 75.2449 37.0566 75.11 37.023 74.9751C35.9499 71.5521 34.8432 68.146 33.8036 64.7061C33.6359 64.1497 33.3006 64.1497 32.8646 64.1497C28.5385 64.1497 24.2124 64.1497 19.8695 64.1497C19.7186 64.1497 19.5676 64.1665 19.1652 64.1834L37.1236 75.481ZM17.6561 53.8469C17.7567 53.7458 17.8741 53.6277 17.9579 53.5266C20.4899 49.0244 23.0218 44.5391 25.537 40.0369C25.6879 39.7165 25.7047 39.3624 25.6209 39.0252C24.7992 36.3441 23.9441 33.6799 23.0889 31.0157C23.0218 30.8302 22.938 30.6447 22.8038 30.3243C21.0768 38.1989 19.3832 45.9218 17.6561 53.8469ZM61.4706 53.712L61.6215 53.6446C59.928 45.9218 58.2512 38.1821 56.5409 30.3749C56.457 30.4592 56.39 30.5604 56.3397 30.6784C55.451 33.4775 54.5455 36.2767 53.6903 39.0926C53.5897 39.413 53.7071 39.8683 53.8748 40.1718C55.3839 42.8866 56.9098 45.6014 58.4356 48.3162C59.4417 50.1204 60.4478 51.9247 61.4706 53.712ZM36.4865 64.1834L39.5718 73.9128L39.773 73.8959L42.8415 64.1834H36.4865Z" fill="#231F20"/>
</svg>
